<svg viewBox="0 0 260 180" fill="none" xmlns="http://www.w3.org/2000/svg">
<path d="M10 10H250V170H10V10Z" fill="var(--color-contrast-high)"/>
<rect opacity="0.9" x="10" y="10" width="60" height="113" fill="var(--color-bg)"/>
<rect opacity="0.95" x="70" y="10" width="60" height="139" fill="var(--color-bg)"/>
<rect opacity="0.9" x="130" y="10" width="60" height="109" fill="var(--color-bg)"/>
<rect opacity="0.95" x="190" y="10" width="60" height="150" fill="var(--color-bg)"/>
<path d="M21 59.57L44.7665 34.9233L59.7305 59.57H21Z" fill="var(--color-contrast-medium)"/>
<path d="M26.2814 37.5629C29.1983 37.5629 31.5629 35.1983 31.5629 32.2814C31.5629 29.3646 29.1983 27 26.2814 27C23.3646 27 21 29.3646 21 32.2814C21 35.1983 23.3646 37.5629 26.2814 37.5629Z" fill="var(--color-contrast-medium)"/>
<path d="M81 85.57L104.766 60.9233L119.731 85.57H81Z" fill="var(--color-contrast-medium)"/>
<path d="M86.2814 63.5629C89.1983 63.5629 91.5629 61.1983 91.5629 58.2814C91.5629 55.3646 89.1983 53 86.2814 53C83.3646 53 81 55.3646 81 58.2814C81 61.1983 83.3646 63.5629 86.2814 63.5629Z" fill="var(--color-contrast-medium)"/>
<path d="M141 55.57L164.766 30.9233L179.731 55.57H141Z" fill="var(--color-contrast-medium)"/>
<path d="M146.281 33.5629C149.198 33.5629 151.563 31.1983 151.563 28.2814C151.563 25.3646 149.198 23 146.281 23C143.365 23 141 25.3646 141 28.2814C141 31.1983 143.365 33.5629 146.281 33.5629Z" fill="var(--color-contrast-medium)"/>
<path d="M201 96.57L224.766 71.9233L239.731 96.57H201Z" fill="var(--color-contrast-medium)"/>
<path d="M206.281 74.5629C209.198 74.5629 211.563 72.1983 211.563 69.2814C211.563 66.3646 209.198 64 206.281 64C203.365 64 201 66.3646 201 69.2814C201 72.1983 203.365 74.5629 206.281 74.5629Z" fill="var(--color-contrast-medium)"/>
<circle cx="227" cy="33" r="15" fill="var(--color-contrast-high)"/>
<rect x="219" y="32" width="16" height="2" rx="1" fill="var(--color-bg)"/>
<rect x="219" y="27" width="16" height="2" rx="1" fill="var(--color-bg)"/>
<rect x="219" y="37" width="16" height="2" rx="1" fill="var(--color-bg)"/>
</svg>
